<svg id="Capa_1" enable-background="new 0 0 512.03 512.03" height="512" viewBox="0 0 512.03 512.03" width="512" xmlns="http://www.w3.org/2000/svg"><circle cx="256.015" cy="239.707" fill="#e7886e" r="202.521"/><path d="m408.4 233.745c-.383.956-1.593 1.556-2.799 1.357-.117-.019-.233-.04-.35-.063-.832-.166-1.474-.701-1.742-1.365-6.574-16.281-25.599-28.372-47.426-28.372-21.876 0-40.934 12.148-47.465 28.488-.365.912-1.479 1.502-2.647 1.397-.074-.007-.149-.014-.223-.022-.936-.1-1.681-.677-1.975-1.411-6.544-16.322-25.591-28.453-47.454-28.453-21.873 0-40.929 12.145-47.463 28.481-.347.867-1.321 1.469-2.437 1.454-.013 0-.027 0-.04-.001-1.087-.018-2.022-.607-2.359-1.452-6.533-16.336-25.588-28.483-47.464-28.483-21.868 0-40.922 12.139-47.459 28.469-.325.812-1.205 1.383-2.247 1.444-.017.001-.035.002-.052.003-1.156.063-2.19-.553-2.55-1.453-6.54-16.326-25.587-28.466-47.455-28.464-.126 0-.281 0-.401.027-1.913 11.181-2.898 22.652-2.898 34.379 0 56.061 22.782 106.799 59.589 143.469h10.112 83.242 99.763 83.243 9.502c36.807-36.67 59.589-87.408 59.589-143.469 0-11.728-.993-23.202-2.907-34.384-21.756.086-40.702 12.165-47.227 28.424z" fill="#dc6646"/><path d="m476.876 238.14c-6.477-3.09-13.713-4.822-21.334-4.822-21.856-.003-40.898 14.834-47.446 34.794-.366 1.115-1.649 1.892-2.799 1.66-.117-.024-.233-.049-.349-.078-.832-.202-1.474-.857-1.743-1.671-6.574-19.916-25.599-34.705-47.426-34.705-21.876 0-40.934 14.861-47.465 34.848-.365 1.116-1.479 1.837-2.647 1.71-.074-.008-.149-.017-.223-.027-.936-.123-1.681-.828-1.975-1.725-6.544-19.966-25.591-34.806-47.454-34.806-21.904 0-40.982 14.898-47.49 34.923-.331 1.017-1.264 1.716-2.334 1.696l-.115-.002c-1.099-.02-2.021-.735-2.355-1.759-6.527-19.992-25.588-34.859-47.469-34.859-21.86 0-40.908 14.838-47.452 34.804-.327.999-1.205 1.715-2.254 1.788l-.052.004c-1.119.078-2.168-.601-2.514-1.668-6.506-20.026-25.583-34.931-47.491-34.928-7.621 0-14.857 1.732-21.334 4.822-20.341 9.704-31.033 32.446-26.677 54.558l21.036 106.77c5.889 29.888 32.097 51.437 62.56 51.437h30.817 83.242 99.763 83.243 30.817c30.463 0 56.671-21.548 62.56-51.437l21.036-106.77c4.357-22.111-6.336-44.854-26.676-54.557z" fill="#e6f9ff"/><path d="m492.091 350.868h-349.075c-47.544 0-86.086-38.542-86.086-86.086 0 0-.004-31.459-.007-31.462-7.78-.067-15.168 1.671-21.768 4.82-20.341 9.704-31.033 32.446-26.677 54.558l15.844 80.418c1.861 9.445 2.78 19.052 2.745 28.679l-.057 15.258c0 31.917 25.874 57.791 57.791 57.791h342.226c31.917 0 57.791-25.874 57.791-57.791v-15.065c0-9.446.92-18.87 2.746-28.139z" fill="#c1f1ff"/><ellipse cx="171.393" cy="165.638" fill="#fff" rx="29.674" ry="22.807"/><ellipse cx="340.638" cy="165.638" fill="#fff" rx="29.674" ry="22.807"/><path d="m480.105 231.371c-4.649-2.218-9.497-3.765-14.489-4.655-6.734-109.776-98.159-197.029-209.601-197.029s-202.866 87.252-209.6 197.028c-4.991.89-9.84 2.437-14.489 4.655-23.236 11.085-35.904 36.9-30.806 62.776l5.412 27.468c.8 4.064 4.745 6.708 8.808 5.909 4.064-.801 6.709-4.744 5.909-8.808l-5.412-27.468c-3.773-19.15 5.499-38.206 22.547-46.339 5.69-2.714 11.782-4.091 18.104-4.091 23.37 0 42.382 19.012 42.382 42.381 0 .246.012.491.036.735l9.446 95.884h-75.065l-6.083-30.876c-.801-4.065-4.747-6.712-8.808-5.909-4.064.801-6.709 4.744-5.909 8.808l7.023 35.647v29.563c0 36.001 29.289 65.291 65.291 65.291h342.227c36.001 0 65.291-29.29 65.291-65.291v-28.537l18.593-94.369c5.097-25.873-7.571-51.688-30.807-62.773zm-418.608-5.321c7.036-101.184 91.577-181.363 194.518-181.363s187.482 80.179 194.518 181.363c-19.234 1.672-35.773 12.868-44.874 28.839-9.882-17.343-28.532-29.071-49.881-29.071s-39.999 11.729-49.881 29.073c-9.882-17.344-28.532-29.073-49.882-29.073s-40 11.729-49.882 29.073c-9.882-17.344-28.532-29.073-49.881-29.073s-39.999 11.728-49.881 29.071c-9.101-15.972-25.64-27.167-44.874-28.839zm61.928 153.769-9.553-96.973c.191-23.207 19.129-42.028 42.38-42.028 23.369 0 42.381 19.012 42.381 42.381v96.62zm174.972 0h-84.764v-96.62c0-23.369 19.012-42.381 42.382-42.381s42.382 19.012 42.382 42.381zm15 0v-96.62c0-23.369 19.012-42.381 42.381-42.381 23.251 0 42.189 18.821 42.38 42.027l-9.553 96.974zm163.921 37.234c0 27.73-22.56 50.291-50.291 50.291h-342.226c-27.73 0-50.291-22.561-50.291-50.291v-22.234h442.808zm18.876-125.805-17.451 88.571h-75.065l9.445-95.884c.024-.245.036-.49.036-.735 0-23.369 19.012-42.381 42.382-42.381 6.323 0 12.414 1.376 18.104 4.091 17.05 8.132 26.322 27.187 22.549 46.338z"/><path d="m193.566 161.622c-4.142 0-7.5-3.358-7.5-7.5v-12c0-4.142 3.358-7.5 7.5-7.5s7.5 3.358 7.5 7.5v12c0 4.142-3.357 7.5-7.5 7.5z"/><path d="m318.464 161.622c-4.142 0-7.5-3.358-7.5-7.5v-12c0-4.142 3.358-7.5 7.5-7.5s7.5 3.358 7.5 7.5v12c0 4.142-3.358 7.5-7.5 7.5z"/><path d="m256.015 168.765c-8.477 0-16.539-3.671-22.118-10.073-2.722-3.123-2.396-7.86.726-10.582s7.86-2.397 10.582.726c2.73 3.132 6.67 4.928 10.811 4.928s8.081-1.796 10.811-4.928c2.721-3.124 7.459-3.448 10.582-.726s3.448 7.459.726 10.582c-5.581 6.402-13.643 10.073-22.12 10.073z"/></svg>